<svg width="22" height="23" viewBox="0 0 22 23" fill="none" xmlns="http://www.w3.org/2000/svg">
<path fill-rule="evenodd" clip-rule="evenodd" d="M3.47247 8.18357C3.24002 8.18218 3.01803 8.2659 2.84892 8.41431C2.68028 8.5623 2.57666 8.76326 2.55272 8.97664L2.55247 8.9789L1.45456 18.4958C1.45452 18.4961 1.45448 18.4965 1.45444 18.4968C1.41548 18.8452 1.45161 19.198 1.56078 19.5323C1.67007 19.8669 1.85037 20.1763 2.09092 20.4395C2.33152 20.7029 2.627 20.9142 2.95855 21.0585C3.29015 21.2028 3.64968 21.2766 4.01335 21.2744L4.01761 21.2744L18.0135 21.2744C18.3746 21.2728 18.7308 21.1964 19.0589 21.0507C19.3873 20.9048 19.6796 20.6931 19.9174 20.4302C20.1552 20.1673 20.3332 19.8592 20.441 19.5263C20.5488 19.1934 20.5842 18.8424 20.5453 18.4958L19.4799 8.97664C19.456 8.76326 19.3524 8.5623 19.1837 8.41431C19.0146 8.2659 18.7926 8.18218 18.5602 8.18357L18.5559 8.18358L3.47247 8.18357ZM3.47867 6.72903C2.90154 6.72614 2.34096 6.93369 1.90528 7.31603C1.46886 7.69902 1.18823 8.2311 1.12278 8.81148C1.12274 8.8119 1.12269 8.81231 1.12264 8.81272L0.0247418 18.3296L0.024487 18.3318C-0.0381522 18.8898 0.0197424 19.4544 0.194054 19.9881C0.36835 20.5218 0.654812 21.0118 1.03352 21.4263C1.41217 21.8407 1.87442 22.1703 2.38924 22.3944C2.90334 22.6182 3.45888 22.732 4.01961 22.7289H18.015L18.0178 22.7289C18.576 22.7268 19.1279 22.6089 19.6379 22.3824C20.148 22.1558 20.6054 21.8254 20.9797 21.4116C21.3541 20.9977 21.637 20.5096 21.8089 19.9787C21.9808 19.4478 22.0376 18.8867 21.9754 18.3321C21.9754 18.332 21.9754 18.3322 21.9754 18.3321L20.91 8.81294C20.8449 8.23208 20.5641 7.69929 20.1274 7.31603C19.6917 6.93369 19.1311 6.72614 18.554 6.72903H18.5559V7.45614L18.5517 6.72905C18.5524 6.72904 18.5532 6.72904 18.554 6.72903" fill="#1A1D1F"/>
<path fill-rule="evenodd" clip-rule="evenodd" d="M11.0001 1.57008C9.55507 1.57008 8.1692 2.19631 7.1474 3.31101C6.12559 4.4257 5.55155 5.93756 5.55155 7.51397C5.55155 7.94754 5.22936 8.29902 4.83193 8.29902C4.43449 8.29902 4.1123 7.94754 4.1123 7.51397C4.1123 5.52114 4.83798 3.60994 6.1297 2.20079C7.42141 0.791649 9.17335 0 11.0001 0C12.8269 0 14.5788 0.791649 15.8705 2.20079C17.1622 3.60994 17.8879 5.52114 17.8879 7.51397C17.8879 7.94754 17.5657 8.29902 17.1683 8.29902C16.7709 8.29902 16.4487 7.94754 16.4487 7.51397C16.4487 5.93756 15.8746 4.4257 14.8528 3.31101C13.831 2.19631 12.4452 1.57008 11.0001 1.57008Z" fill="#1A1D1F"/>
</svg>
