<svg width="14" height="12" viewBox="0 0 14 12" fill="none" xmlns="http://www.w3.org/2000/svg">
<path fill-rule="evenodd" clip-rule="evenodd" d="M9.52446 12V6.43026L14 3.64747V9.00398C14 9.13926 13.9373 9.25623 13.8285 9.32387L9.52446 12ZM4.14072 9.23178H0.529648C0.237152 9.23178 0 8.97638 0 8.66138C0 8.34638 0.237152 8.09097 0.529648 8.09097H4.12188C4.74302 8.09097 4.74302 7.02267 4.12188 7.02267H1.9632C1.6707 7.02267 1.43352 6.76726 1.43352 6.45226C1.43352 6.13726 1.6707 5.88186 1.9632 5.88186H3.65157C4.27271 5.88186 4.27271 4.81355 3.65157 4.81355H0.529676C0.23718 4.81355 2.73438e-05 4.55814 2.73438e-05 4.24314C2.73438e-05 3.92814 0.23718 3.67274 0.529676 3.67274H4.15786L8.59288 6.43035V12L4.14072 9.23178ZM4.57978 2.77952L9.05866 5.56438L13.5375 2.77949L9.06724 0H6.13424C5.84175 0 5.60459 0.255401 5.60459 0.570405C5.60459 0.885409 5.84175 1.14081 6.13424 1.14081H6.75407C6.811 1.14081 6.85871 1.18024 6.87345 1.23946C6.88816 1.29868 6.86517 1.35852 6.81587 1.3892L4.57978 2.77952ZM4.32482 0C4.61732 0 4.85447 0.255401 4.85447 0.570405C4.85447 0.885409 4.61732 1.14081 4.32482 1.14081H1.10545C0.812957 1.14081 0.575777 0.885409 0.575777 0.570405C0.575777 0.255401 0.81293 0 1.10545 0H4.32482Z" fill="#1A1D1F"/>
</svg>
