<svg width="24" height="24" viewBox="0 0 24 24" fill="none" xmlns="http://www.w3.org/2000/svg">
<path d="M8.30631 12.6262C8.60481 14.3986 10.1429 15.7513 11.9996 15.7513C13.8573 15.7513 15.3954 14.3986 15.6939 12.6262H19.5002V18.2512C19.5002 18.9386 18.9375 19.5013 18.2501 19.5013H5.75008C5.0627 19.5013 4.5 18.9386 4.5 18.2512V12.6262H8.30631Z" fill="white"/>
<path d="M12.0013 9.49939C13.3824 9.49939 14.5018 10.6188 14.5018 11.9994C14.5018 13.38 13.3824 14.4993 12.0013 14.4993C10.6212 14.4993 9.50184 13.38 9.50184 11.9994C9.50184 10.6188 10.6212 9.49939 12.0013 9.49939Z" fill="white"/>
<path d="M5.74987 4.5H18.2499C18.9373 4.5 19.5 5.06269 19.5 5.75008V11.3752H15.6937C15.3952 9.60271 13.8571 8.25005 11.9993 8.25005C10.1427 8.25005 8.6046 9.60271 8.30609 11.3752H4.49979V5.75008C4.49979 5.06269 5.06248 4.5 5.74987 4.5ZM6.37482 7.6251C6.37482 7.96862 6.65625 8.25005 6.99977 8.25005H7.6249C7.96841 8.25005 8.24984 7.96862 8.24984 7.6251V6.99997C8.24984 6.65646 7.96841 6.37503 7.6249 6.37503H6.99977C6.65625 6.37503 6.37482 6.65646 6.37482 6.99997V7.6251Z" fill="white"/>
</svg>
