<svg width="25" height="25" viewBox="0 0 25 25" fill="none" xmlns="http://www.w3.org/2000/svg">
<g filter="url(#filter0_ii_34_423)">
<path d="M11.3515 0.722092C11.6513 0.0547478 12.5987 0.0547477 12.8985 0.722092C13.1569 1.29744 13.9306 1.3993 14.3292 0.910445C14.7914 0.343418 15.7066 0.588645 15.8234 1.31083C15.9241 1.93345 16.6451 2.23211 17.1566 1.86305C17.7499 1.43498 18.5704 1.90873 18.4963 2.63653C18.4324 3.264 19.0516 3.7391 19.6411 3.51499C20.325 3.25506 20.9949 3.92503 20.735 4.60886C20.5109 5.19842 20.986 5.81757 21.6135 5.75369C22.3413 5.6796 22.815 6.50015 22.3869 7.0934C22.0179 7.60487 22.3165 8.32588 22.9392 8.42659C23.6614 8.54339 23.9066 9.45859 23.3396 9.92083C22.8507 10.3194 22.9526 11.0931 23.5279 11.3515C24.1953 11.6513 24.1953 12.5987 23.5279 12.8985C22.9526 13.1569 22.8507 13.9306 23.3396 14.3292C23.9066 14.7914 23.6614 15.7066 22.9392 15.8234C22.3165 15.9241 22.0179 16.6451 22.3869 17.1566C22.815 17.7499 22.3413 18.5704 21.6135 18.4963C20.986 18.4324 20.5109 19.0516 20.735 19.6411C20.9949 20.325 20.325 20.9949 19.6411 20.735C19.0516 20.5109 18.4324 20.986 18.4963 21.6135C18.5704 22.3413 17.7499 22.815 17.1566 22.3869C16.6451 22.0179 15.9241 22.3165 15.8234 22.9392C15.7066 23.6614 14.7914 23.9066 14.3292 23.3396C13.9306 22.8507 13.1569 22.9526 12.8985 23.5279C12.5987 24.1953 11.6513 24.1953 11.3515 23.5279C11.0931 22.9526 10.3194 22.8507 9.92083 23.3396C9.45859 23.9066 8.54339 23.6614 8.42659 22.9392C8.32588 22.3165 7.60487 22.0179 7.0934 22.3869C6.50015 22.815 5.6796 22.3413 5.75369 21.6135C5.81757 20.986 5.19842 20.5109 4.60886 20.735C3.92503 20.9949 3.25506 20.325 3.51499 19.6411C3.7391 19.0516 3.264 18.4324 2.63653 18.4963C1.90873 18.5704 1.43498 17.7499 1.86305 17.1566C2.23211 16.6451 1.93345 15.9241 1.31083 15.8234C0.588645 15.7066 0.343418 14.7914 0.910445 14.3292C1.3993 13.9306 1.29744 13.1569 0.722092 12.8985C0.0547477 12.5987 0.0547477 11.6513 0.722092 11.3515C1.29744 11.0931 1.3993 10.3194 0.910445 9.92083C0.343418 9.45859 0.588645 8.54339 1.31083 8.42659C1.93345 8.32588 2.23211 7.60487 1.86305 7.0934C1.43498 6.50015 1.90873 5.6796 2.63653 5.75369C3.264 5.81757 3.7391 5.19842 3.51499 4.60886C3.25506 3.92503 3.92503 3.25506 4.60886 3.51499C5.19842 3.7391 5.81757 3.26401 5.75369 2.63653C5.6796 1.90873 6.50015 1.43498 7.0934 1.86305C7.60487 2.23211 8.32588 1.93345 8.42659 1.31083C8.54339 0.588645 9.45859 0.343418 9.92083 0.910445C10.3194 1.3993 11.0931 1.29744 11.3515 0.722092Z" fill="url(#paint0_linear_34_423)"/>
</g>
<path d="M6 8.69491C6 7.29974 7.18105 6.09628 8.80045 6.09628C10.417 6.09628 11.5999 7.29974 11.5999 8.69491C11.5999 10.0909 10.4179 11.2783 8.80045 11.2783C7.18201 11.2783 6 10.0918 6 8.69491ZM9.74605 8.69491C9.74605 8.18228 9.4015 7.73214 8.8014 7.73214C8.20131 7.73214 7.8558 8.18143 7.8558 8.69491C7.8558 9.20839 8.20131 9.64164 8.8014 9.64164C9.40054 9.64164 9.74605 9.20923 9.74605 8.69491ZM14.164 6.51348C14.4004 6.11232 14.5832 6 15.0005 6C15.5642 6 16.0724 6.402 16.0724 6.89774C16.0724 7.02611 16.0724 7.13843 15.9279 7.37913L9.81783 17.4705C9.54602 17.8074 9.43595 18 9.00048 18C8.52768 18 7.96299 17.5988 7.96299 17.1175C7.96299 16.8768 8.0721 16.6521 8.14484 16.5238L14.164 6.51348ZM12.4001 15.3211C12.4001 13.926 13.5821 12.7225 15.2005 12.7225C16.818 12.7225 18 13.926 18 15.3211C18 16.7172 16.8189 17.9046 15.2005 17.9046C13.5821 17.9046 12.4001 16.7172 12.4001 15.3211ZM16.1452 15.3211C16.1452 14.8085 15.8006 14.3584 15.2005 14.3584C14.6004 14.3584 14.2559 14.8077 14.2559 15.3211C14.2559 15.8346 14.6004 16.2679 15.2005 16.2679C15.8006 16.2679 16.1452 15.8346 16.1452 15.3211Z" fill="white"/>
<defs>
<filter id="filter0_ii_34_423" x="-1.77841" y="-1.77844" width="27.8068" height="27.8069" filterUnits="userSpaceOnUse" color-interpolation-filters="sRGB">
<feFlood flood-opacity="0" result="BackgroundImageFix"/>
<feBlend mode="normal" in="SourceGraphic" in2="BackgroundImageFix" result="shape"/>
<feColorMatrix in="SourceAlpha" type="matrix" values="0 0 0 0 0 0 0 0 0 0 0 0 0 0 0 0 0 0 127 0" result="hardAlpha"/>
<feOffset dx="-2" dy="-2"/>
<feGaussianBlur stdDeviation="3"/>
<feComposite in2="hardAlpha" operator="arithmetic" k2="-1" k3="1"/>
<feColorMatrix type="matrix" values="0 0 0 0 1 0 0 0 0 0.40059 0 0 0 0 0.275 0 0 0 1 0"/>
<feBlend mode="normal" in2="shape" result="effect1_innerShadow_34_423"/>
<feColorMatrix in="SourceAlpha" type="matrix" values="0 0 0 0 0 0 0 0 0 0 0 0 0 0 0 0 0 0 127 0" result="hardAlpha"/>
<feOffset dx="2" dy="2"/>
<feGaussianBlur stdDeviation="3"/>
<feComposite in2="hardAlpha" operator="arithmetic" k2="-1" k3="1"/>
<feColorMatrix type="matrix" values="0 0 0 0 1 0 0 0 0 0.70374 0 0 0 0 0.641667 0 0 0 1 0"/>
<feBlend mode="normal" in2="effect1_innerShadow_34_423" result="effect2_innerShadow_34_423"/>
</filter>
<linearGradient id="paint0_linear_34_423" x1="-1" y1="-1" x2="22.5156" y2="25.25" gradientUnits="userSpaceOnUse">
<stop stop-color="#FF9680"/>
<stop offset="1" stop-color="#FF7766"/>
</linearGradient>
</defs>
</svg>
