<svg width="21" height="21" viewBox="0 0 21 21" fill="none" xmlns="http://www.w3.org/2000/svg">
<path fill-rule="evenodd" clip-rule="evenodd" d="M9.88722 1.50178C5.25607 1.50178 1.50178 5.25607 1.50178 9.88722C1.50178 14.5184 5.25607 18.2727 9.88722 18.2727C14.5184 18.2727 18.2727 14.5184 18.2727 9.88722C18.2727 5.25607 14.5184 1.50178 9.88722 1.50178ZM0 9.88722C0 4.42666 4.42666 0 9.88722 0C15.3478 0 19.7744 4.42666 19.7744 9.88722C19.7744 15.3478 15.3478 19.7744 9.88722 19.7744C4.42666 19.7744 0 15.3478 0 9.88722Z" fill="#1A1D1F"/>
<path fill-rule="evenodd" clip-rule="evenodd" d="M16.7348 16.7348C16.8823 16.5874 17.1213 16.5874 17.2687 16.7348L20.4469 19.913C20.5944 20.0605 20.5944 20.2995 20.4469 20.4469C20.2995 20.5944 20.0605 20.5944 19.913 20.4469L16.7348 17.2687C16.5874 17.1213 16.5874 16.8823 16.7348 16.7348Z" fill="#1A1D1F"/>
<path fill-rule="evenodd" clip-rule="evenodd" d="M16.422 16.4221C16.7422 16.1018 17.2614 16.1018 17.5816 16.4221L20.7598 19.6002C21.0801 19.9205 21.0801 20.4397 20.7598 20.7599C20.4396 21.0802 19.9204 21.0802 19.6001 20.7599L16.422 17.5817C16.1017 17.2615 16.1017 16.7423 16.422 16.4221Z" fill="#1A1D1F"/>
</svg>
