<svg width="480" height="375" viewBox="0 0 480 375" fill="none" xmlns="http://www.w3.org/2000/svg">
<path d="M427.674 -0.446899C423.12 -9.14148 417.639 -17.3462 411.322 -24.926C391.125 -51.7255 365.426 -74.149 335.855 -90.7749C306.493 -107.299 273.174 -116 239.256 -116C205.337 -116 172.018 -107.299 142.657 -90.7749C113.146 -73.964 87.4669 -51.4748 67.1888 -24.6812C45.0861 3.93324 28.079 35.9567 16.8769 70.053C5.27985 107.011 -0.404812 145.485 0.0224052 184.126C-0.3512 241.169 13.0023 297.505 39.0141 348.626C42.536 355.235 46.3094 361.599 50.0828 367.719C54.9336 377.249 61.0207 386.134 68.1951 394.157C87.6367 421.089 113.269 443.233 143.053 458.83C172.837 474.426 205.95 483.043 239.759 483.995C273.609 484.234 306.927 475.791 336.358 459.516C365.98 442.854 391.688 420.339 411.826 393.422C433.977 364.838 450.989 332.806 462.137 298.688C474.097 261.871 480.122 223.473 479.998 184.86C480.1 146.169 474.075 107.694 462.137 70.7874C453.672 45.7662 442.098 21.8444 427.674 -0.446899ZM73.2263 180.454C73.6344 150.901 78.3781 121.556 87.3136 93.3082C95.5798 66.9467 108.335 42.1227 125.048 19.8708C137.856 1.55447 154.914 -13.5729 174.841 -24.289C194.768 -35.0051 217.006 -41.0093 239.759 -41.8166C262.6 -40.8993 284.895 -34.745 304.829 -23.8552C324.763 -12.9653 341.772 2.35222 354.47 20.8499C358.243 25.7458 361.765 30.6416 365.035 35.7822C370.168 46.4033 373.238 57.8562 374.092 69.5634C375.746 88.7587 371.546 108.003 362.017 124.886C348.684 146.917 318.245 168.949 250.073 149.365C211.698 136.096 170.04 134.728 130.833 145.449C108.909 152.212 89.0939 164.252 73.2263 180.454ZM392.204 274.699C383.992 301.081 371.232 325.913 354.47 348.136C341.77 366.651 324.766 381.996 304.837 392.926C284.908 403.856 262.613 410.064 239.759 411.047C212.564 410.926 186.122 402.349 164.291 386.568C142.741 373.472 125.329 354.834 113.979 332.714C109.015 322.507 106.193 311.438 105.677 300.157C103.736 280.818 107.858 261.36 117.501 244.344C130.833 222.313 161.021 200.527 229.445 219.865C251.899 226.867 275.298 230.58 298.875 230.881C315.943 231.085 332.932 228.606 349.187 223.537C371.267 216.573 391.173 204.277 407.046 187.798C406.616 217.326 401.612 246.622 392.204 274.699Z" fill="#F8F8F8"/>
</svg>
